<!-- Generated by IcoMoon.io -->
<svg version="1.1" xmlns="http://www.w3.org/2000/svg" width="32" height="32" viewBox="0 0 32 32">
<title>dots</title>
<symbol id="dots">
<path d="M9.6 16c-0 1.767-1.433 3.2-3.201 3.2s-3.201-1.433-3.201-3.201c0-0 0-0.001 0-0.001v0c0-1.767 1.433-3.2 3.201-3.2s3.201 1.433 3.201 3.201c0 0 0 0.001 0 0.001v-0zM19.2 16c-0 1.767-1.433 3.2-3.201 3.2s-3.201-1.433-3.201-3.201c0-0 0-0.001 0-0.001v0c0-1.767 1.433-3.2 3.201-3.2s3.201 1.433 3.201 3.201c0 0 0 0.001 0 0.001v-0zM28.8 16c-0 1.767-1.433 3.2-3.201 3.2s-3.201-1.433-3.201-3.201c0-0 0-0.001 0-0.001v0c0-1.767 1.433-3.2 3.201-3.2s3.201 1.433 3.201 3.201c0 0 0 0.001 0 0.001v-0z"></path>
</symbol>
</svg>
