<svg aria-hidden="true" style="position: absolute; width: 0; height: 0; overflow: hidden;" version="1.1" xmlns="http://www.w3.org/2000/svg" xmlns:xlink="http://www.w3.org/1999/xlink">
<defs>
<symbol id="icon-bookmark1" viewBox="0 0 32 32">
<path d="M9.6 16c-0 1.767-1.433 3.2-3.201 3.2s-3.201-1.433-3.201-3.201c0-0 0-0.001 0-0.001v0c0-1.767 1.433-3.2 3.201-3.2s3.201 1.433 3.201 3.201c0 0 0 0.001 0 0.001v-0zM19.2 16c-0 1.767-1.433 3.2-3.201 3.2s-3.201-1.433-3.201-3.201c0-0 0-0.001 0-0.001v0c0-1.767 1.433-3.2 3.201-3.2s3.201 1.433 3.201 3.201c0 0 0 0.001 0 0.001v-0zM28.8 16c-0 1.767-1.433 3.2-3.201 3.2s-3.201-1.433-3.201-3.201c0-0 0-0.001 0-0.001v0c0-1.767 1.433-3.2 3.201-3.2s3.201 1.433 3.201 3.201c0 0 0 0.001 0 0.001v-0z"></path>
</symbol>
<symbol id="icon-bookmark2" viewBox="0 0 32 32">
<path d="M9.6 16c-0 1.767-1.433 3.2-3.201 3.2s-3.201-1.433-3.201-3.201c0-0 0-0.001 0-0.001v0c0-1.767 1.433-3.2 3.201-3.2s3.201 1.433 3.201 3.201c0 0 0 0.001 0 0.001v-0zM19.2 16c-0 1.767-1.433 3.2-3.201 3.2s-3.201-1.433-3.201-3.201c0-0 0-0.001 0-0.001v0c0-1.767 1.433-3.2 3.201-3.2s3.201 1.433 3.201 3.201c0 0 0 0.001 0 0.001v-0zM28.8 16c-0 1.767-1.433 3.2-3.201 3.2s-3.201-1.433-3.201-3.201c0-0 0-0.001 0-0.001v0c0-1.767 1.433-3.2 3.201-3.2s3.201 1.433 3.201 3.201c0 0 0 0.001 0 0.001v-0z"></path>
</symbol>
<symbol id="icon-bookmark3" viewBox="0 0 32 32">
<path d="M26.667 31.259l-10.667-7.253-10.667 7.253v-29.925h21.333zM16 22.395l9.333 6.347v-26.075h-18.667v26.075z"></path>
</symbol>
<symbol id="icon-comment1" viewBox="0 0 32 32">
<path d="M11.876 23.995c0.112-0.019 0.226-0.003 0.329 0.046 1.176 0.556 2.464 0.849 3.795 0.849 4.909 0 8.889-3.98 8.889-8.889s-3.98-8.889-8.889-8.889c-4.909 0-8.889 3.98-8.889 8.889 0 1.897 0.595 3.702 1.683 5.206 0.117 0.162 0.138 0.375 0.055 0.557l-1.354 2.962 4.38-0.73zM6.647 25.992c-0.439 0.073-0.782-0.374-0.597-0.779l1.656-3.624c-1.105-1.636-1.707-3.568-1.707-5.589 0-5.523 4.477-10 10-10s10 4.477 10 10c0 5.523-4.477 10-10 10-1.436 0-2.83-0.303-4.111-0.881l-5.243 0.874z"></path>
</symbol>
<symbol id="icon-comment2" viewBox="0 0 32 32">
<path d="M11.876 23.995c0.112-0.019 0.226-0.003 0.329 0.046 1.176 0.556 2.464 0.849 3.795 0.849 4.909 0 8.889-3.98 8.889-8.889s-3.98-8.889-8.889-8.889c-4.909 0-8.889 3.98-8.889 8.889 0 1.897 0.595 3.702 1.683 5.206 0.117 0.162 0.138 0.375 0.055 0.557l-1.354 2.962 4.38-0.73zM6.647 25.992c-0.439 0.073-0.782-0.374-0.597-0.779l1.656-3.624c-1.105-1.636-1.707-3.568-1.707-5.589 0-5.523 4.477-10 10-10s10 4.477 10 10c0 5.523-4.477 10-10 10-1.436 0-2.83-0.303-4.111-0.881l-5.243 0.874z"></path>
</symbol>
<symbol id="icon-like" viewBox="0 0 32 32">
<path fill="#fff" style="fill: var(--color1, #fff)" d="M22.234 4.779c-2.618 0-4.925 1.309-6.234 3.366-1.309-2.057-3.616-3.366-6.234-3.366-4.114 0-7.481 3.366-7.481 7.481 0 7.418 13.714 14.961 13.714 14.961s13.714-7.481 13.714-14.961c0-4.114-3.366-7.481-7.481-7.481z"></path>
</symbol>
<symbol id="icon-dots" viewBox="0 0 32 32">
<path d="M9.6 16c-0 1.767-1.433 3.2-3.201 3.2s-3.201-1.433-3.201-3.201c0-0 0-0.001 0-0.001v0c0-1.767 1.433-3.2 3.201-3.2s3.201 1.433 3.201 3.201c0 0 0 0.001 0 0.001v-0zM19.2 16c-0 1.767-1.433 3.2-3.201 3.2s-3.201-1.433-3.201-3.201c0-0 0-0.001 0-0.001v0c0-1.767 1.433-3.2 3.201-3.2s3.201 1.433 3.201 3.201c0 0 0 0.001 0 0.001v-0zM28.8 16c-0 1.767-1.433 3.2-3.201 3.2s-3.201-1.433-3.201-3.201c0-0 0-0.001 0-0.001v0c0-1.767 1.433-3.2 3.201-3.2s3.201 1.433 3.201 3.201c0 0 0 0.001 0 0.001v-0z"></path>
</symbol>
<symbol id="icon-send" viewBox="0 0 32 32">
<path d="M9.6 16c-0 1.767-1.433 3.2-3.201 3.2s-3.201-1.433-3.201-3.201c0-0 0-0.001 0-0.001v0c0-1.767 1.433-3.2 3.201-3.2s3.201 1.433 3.201 3.201c0 0 0 0.001 0 0.001v-0zM19.2 16c-0 1.767-1.433 3.2-3.201 3.2s-3.201-1.433-3.201-3.201c0-0 0-0.001 0-0.001v0c0-1.767 1.433-3.2 3.201-3.2s3.201 1.433 3.201 3.201c0 0 0 0.001 0 0.001v-0zM28.8 16c-0 1.767-1.433 3.2-3.201 3.2s-3.201-1.433-3.201-3.201c0-0 0-0.001 0-0.001v0c0-1.767 1.433-3.2 3.201-3.2s3.201 1.433 3.201 3.201c0 0 0 0.001 0 0.001v-0z"></path>
</symbol>
<symbol id="icon-user" viewBox="0 0 32 32">
<path d="M9.6 16c-0 1.767-1.433 3.2-3.201 3.2s-3.201-1.433-3.201-3.201c0-0 0-0.001 0-0.001v0c0-1.767 1.433-3.2 3.201-3.2s3.201 1.433 3.201 3.201c0 0 0 0.001 0 0.001v-0zM19.2 16c-0 1.767-1.433 3.2-3.201 3.2s-3.201-1.433-3.201-3.201c0-0 0-0.001 0-0.001v0c0-1.767 1.433-3.2 3.201-3.2s3.201 1.433 3.201 3.201c0 0 0 0.001 0 0.001v-0zM28.8 16c-0 1.767-1.433 3.2-3.201 3.2s-3.201-1.433-3.201-3.201c0-0 0-0.001 0-0.001v0c0-1.767 1.433-3.2 3.201-3.2s3.201 1.433 3.201 3.201c0 0 0 0.001 0 0.001v-0z"></path>
</symbol>
</defs>
</svg>
